<?xml version="1.0" encoding="UTF-8" standalone="no"?>
<svg
   version="1.1"
   x="0px"
   y="0px"
   width="64"
   height="64"
   viewBox="0.21 -0.077 64 64"
   enable-background="new 0.21 -0.077 110 110"
   xml:space="preserve"
   id="svg4"
   xmlns="http://www.w3.org/2000/svg"
   xmlns:svg="http://www.w3.org/2000/svg"><defs
     id="defs4" /><linearGradient
     id="SVGID_1_"
     gradientUnits="userSpaceOnUse"
     x1="63.815899"
     y1="56.682899"
     x2="118.4934"
     y2="1.8225"
     gradientTransform="matrix(0.58181818,0,0,-0.58181818,-30.921578,38.619203)"> <stop
   offset="0"
   style="stop-color:#387EB8"
   id="stop1" /> <stop
   offset="1"
   style="stop-color:#366994"
   id="stop2" /></linearGradient><path
     fill="url(#SVGID_1_)"
     d="m 32.1012,-0.07700028 c -15.1104,0 -15.272727,5.86530908 -15.272727,7.07258178 0,1.8315636 0,7.3274185 0,7.3274185 h 15.563636 v 2.199854 c 0,0 -16.2048,0 -21.745454,0 -4.6248732,0 -10.436655,2.811927 -10.436655,15.272727 0,11.446109 4.5335273,15.872582 9.1089454,15.872582 1.3585456,0 5.4365086,0 5.4365086,0 0,0 0,-5.681454 0,-7.636363 0,-3.194764 1.583128,-9.108946 8.963491,-9.108946 9.256728,0 11.619491,0 15.436219,0 2.270254,0 8.672581,-0.986763 8.672581,-8.381673 0,-7.826618 0,-10.408727 0,-14.091054 C 47.828327,6.6156542 47.514727,-0.07700028 32.1012,-0.07700028 Z M 23.519382,4.8504179 c 1.5488,0 2.800291,1.2509091 2.800291,2.8002909 0,1.5482182 -1.251491,2.8002912 -2.800291,2.8002912 -1.5488,0 -2.800291,-1.2514912 -2.800291,-2.8002912 0,-1.5493818 1.251491,-2.8002909 2.800291,-2.8002909 z"
     id="path2"
     style="fill:url(#SVGID_1_);stroke-width:0.999999" /><linearGradient
     id="SVGID_2_"
     gradientUnits="userSpaceOnUse"
     x1="97.044403"
     y1="21.632099"
     x2="155.6665"
     y2="-34.5308"
     gradientTransform="matrix(0.58181818,0,0,-0.58181818,-30.921578,38.619203)"> <stop
   offset="0"
   style="stop-color:#FFE052"
   id="stop3" /> <stop
   offset="1"
   style="stop-color:#FFC331"
   id="stop4" /></linearGradient><path
     fill="url(#SVGID_2_)"
     d="m 32.3188,63.923 c 15.103418,0 15.291345,-5.975855 15.291345,-7.072582 0,-1.831564 0,-7.327418 0,-7.327418 H 32.027891 v -2.199855 c 0,0 16.309527,0 21.745454,0 4.659782,0 10.436655,-2.882327 10.436655,-15.272727 0,-13.569164 -6.1312,-15.872582 -9.108946,-15.872582 -1.359127,0 -5.436509,0 -5.436509,0 0,0 0,5.943855 0,7.636364 0,3.194763 -1.530763,9.108945 -8.963491,9.108945 -9.256727,0 -11.33149,0 -15.4368,0 -2.264436,0 -8.672581,1.103127 -8.672581,8.381673 0,8.421818 0,10.626909 0,14.091054 0,3.042909 1.859491,8.527128 15.727127,8.527128 z m 8.5824,-4.927419 c -1.5488,0 -2.800291,-1.251491 -2.800291,-2.800291 0,-1.5488 1.250909,-2.80029 2.800291,-2.80029 1.548218,0 2.800291,1.25149 2.800291,2.80029 0,1.5488 -1.252073,2.800291 -2.800291,2.800291 z"
     id="path4"
     style="fill:url(#SVGID_2_);stroke-width:0.999999" /></svg>
